<svg xmlns="http://www.w3.org/2000/svg" width="512" height="512" viewBox="0 0 512 512" role="img" aria-labelledby="title desc">
  <title id="title">Norscode compass mark</title>
  <desc id="desc">A nordic compass inspired Norscode mark with an N-shaped route.</desc>
  <defs>
    <linearGradient id="ring" x1="80" y1="70" x2="430" y2="438" gradientUnits="userSpaceOnUse">
      <stop stop-color="#0f2a36"/>
      <stop offset="1" stop-color="#1f5968"/>
    </linearGradient>
    <linearGradient id="route" x1="170" y1="350" x2="342" y2="162" gradientUnits="userSpaceOnUse">
      <stop stop-color="#fbbf24"/>
      <stop offset="1" stop-color="#38bdf8"/>
    </linearGradient>
  </defs>
  <circle cx="256" cy="256" r="206" fill="#f8fafc"/>
  <circle cx="256" cy="256" r="184" fill="none" stroke="url(#ring)" stroke-width="30"/>
  <path d="M256 74l26 74h-52zM256 438l-26-74h52zM74 256l74-26v52zM438 256l-74 26v-52z" fill="#163042"/>
  <path d="M164 346V166h46l92 112V166h46v180h-46l-92-112v112z" fill="#163042"/>
  <path d="M164 346c42-26 72-58 92-96 20-37 49-66 92-84" fill="none" stroke="url(#route)" stroke-width="16" stroke-linecap="round"/>
  <circle cx="164" cy="346" r="14" fill="#fbbf24"/>
  <circle cx="348" cy="166" r="14" fill="#38bdf8"/>
</svg>
