<svg xmlns="http://www.w3.org/2000/svg" viewBox="0 0 256 256" fill="none" role="img" aria-labelledby="title desc">
  <title id="title">Norscode favicon</title>
  <desc id="desc">Small-size favicon derived from the homepage logo mark.</desc>
  <defs>
    <linearGradient id="iconGrad" x1="60" y1="36" x2="196" y2="204" gradientUnits="userSpaceOnUse">
      <stop offset="0" stop-color="#5af5ff"/>
      <stop offset="0.38" stop-color="#1c95ff"/>
      <stop offset="0.72" stop-color="#8160ff"/>
      <stop offset="1" stop-color="#f4efff"/>
    </linearGradient>
  </defs>
  <rect width="256" height="256" fill="none"/>
  <rect x="56" y="44" width="144" height="144" rx="40" stroke="url(#iconGrad)" stroke-width="8"/>
  <path d="M96 148V86C96 81 100 77 105 77H119C124 77 128 81 128 86V120L164 77H185C190 77 194 81 194 86V148C194 153 190 157 185 157H171C166 157 162 153 162 148V114L126 157H105C100 157 96 153 96 148Z" fill="url(#iconGrad)"/>
</svg>
