<svg xmlns="http://www.w3.org/2000/svg" viewBox="0 0 256 256" fill="none" role="img" aria-labelledby="title desc">
  <title id="title">Norscode file icon</title>
  <desc id="desc">Generic Norscode source file icon for .no files.</desc>
  <defs>
    <linearGradient id="line" x1="72" y1="40" x2="192" y2="216" gradientUnits="userSpaceOnUse">
      <stop offset="0" stop-color="#5af5ff"/>
      <stop offset="0.38" stop-color="#1c95ff"/>
      <stop offset="0.72" stop-color="#8160ff"/>
      <stop offset="1" stop-color="#f4efff"/>
    </linearGradient>
  </defs>
  <path d="M56 28h100l44 44v156H56V28Z" fill="#0a1119" stroke="#6c84a0" stroke-width="4"/>
  <path d="M156 28v48h44" stroke="#6c84a0" stroke-width="4" stroke-linejoin="round"/>
  <path d="M89 164v-58c0-5 4-9 9-9h9c5 0 9 4 9 9v32l32-41h22c5 0 9 4 9 9v58c0 5-4 9-9 9h-9c-5 0-9-4-9-9v-31l-32 40H98c-5 0-9-4-9-9Z" fill="url(#line)"/>
  <text x="80" y="212" fill="#dfe8f2" font-size="22" font-family="Avenir Next, Segoe UI, Arial, sans-serif" font-weight="700">.no</text>
</svg>
