<svg xmlns="http://www.w3.org/2000/svg" viewBox="0 0 256 256" fill="none" role="img" aria-labelledby="title desc">
  <title id="title">Norscode data file icon</title>
  <desc id="desc">Data file icon for .ncd files.</desc>
  <defs>
    <linearGradient id="line" x1="72" y1="40" x2="192" y2="216" gradientUnits="userSpaceOnUse">
      <stop offset="0" stop-color="#5af5ff"/>
      <stop offset="0.38" stop-color="#1c95ff"/>
      <stop offset="0.72" stop-color="#8160ff"/>
      <stop offset="1" stop-color="#f4efff"/>
    </linearGradient>
  </defs>
  <path d="M56 28h100l44 44v156H56V28Z" fill="#0a1119" stroke="#6c84a0" stroke-width="4"/>
  <path d="M156 28v48h44" stroke="#6c84a0" stroke-width="4" stroke-linejoin="round"/>
  <ellipse cx="128" cy="102" rx="34" ry="14" stroke="url(#line)" stroke-width="6"/>
  <path d="M94 102v52c0 8 15 14 34 14s34-6 34-14v-52" stroke="url(#line)" stroke-width="6"/>
  <path d="M94 128c0 8 15 14 34 14s34-6 34-14M94 154c0 8 15 14 34 14s34-6 34-14" stroke="url(#line)" stroke-width="6"/>
  <text x="76" y="212" fill="#dfe8f2" font-size="22" font-family="Avenir Next, Segoe UI, Arial, sans-serif" font-weight="700">.ncd</text>
</svg>
