<svg xmlns="http://www.w3.org/2000/svg" viewBox="0 0 256 256" fill="none" role="img" aria-labelledby="title desc">
  <title id="title">Norscode compiler icon</title>
  <desc id="desc">Compiler/settings icon in Norscode style.</desc>
  <defs>
    <linearGradient id="line" x1="44" y1="44" x2="212" y2="212" gradientUnits="userSpaceOnUse">
      <stop offset="0" stop-color="#5af5ff"/>
      <stop offset="0.38" stop-color="#1c95ff"/>
      <stop offset="0.72" stop-color="#8160ff"/>
      <stop offset="1" stop-color="#f4efff"/>
    </linearGradient>
  </defs>
  <path d="M128 54 147 68l24-4 9 22 24 9-4 24 14 19-14 19 4 24-24 9-9 22-24-4-19 14-19-14-24 4-9-22-24-9 4-24-14-19 14-19-4-24 24-9 9-22 24 4 19-14Z" fill="#0a1119" stroke="#6c84a0" stroke-width="4" stroke-linejoin="round"/>
  <circle cx="128" cy="138" r="42" stroke="url(#line)" stroke-width="8"/>
  <path d="M128 116v44M106 138h44" stroke="url(#line)" stroke-width="8" stroke-linecap="round"/>
</svg>
