<svg xmlns="http://www.w3.org/2000/svg" viewBox="0 0 256 256" fill="none" role="img" aria-labelledby="title desc">
  <title id="title">Norscode project folder icon</title>
  <desc id="desc">Project folder icon in Norscode style.</desc>
  <defs>
    <linearGradient id="line" x1="48" y1="56" x2="210" y2="206" gradientUnits="userSpaceOnUse">
      <stop offset="0" stop-color="#5af5ff"/>
      <stop offset="0.38" stop-color="#1c95ff"/>
      <stop offset="0.72" stop-color="#8160ff"/>
      <stop offset="1" stop-color="#f4efff"/>
    </linearGradient>
  </defs>
  <path d="M34 76h64l18 18h106v108c0 12-10 22-22 22H56c-12 0-22-10-22-22V76Z" fill="#0a1119" stroke="#6c84a0" stroke-width="4"/>
  <path d="M34 96h188" stroke="#6c84a0" stroke-width="4"/>
  <path d="M93 175v-54c0-5 4-9 9-9h8c5 0 9 4 9 9v29l29-38h18c5 0 9 4 9 9v54c0 5-4 9-9 9h-8c-5 0-9-4-9-9v-28l-29 37h-18c-5 0-9-4-9-9Z" fill="url(#line)"/>
</svg>
