<svg xmlns="http://www.w3.org/2000/svg" viewBox="0 0 512 512" fill="none" role="img" aria-labelledby="title desc">
  <title id="title">Norscode mark</title>
  <desc id="desc">Norscode neon N mark for app icons and compact branding.</desc>
  <defs>
    <linearGradient id="markGrad" x1="114" y1="98" x2="412" y2="412" gradientUnits="userSpaceOnUse">
      <stop stop-color="#5af5ff"/>
      <stop offset="0.36" stop-color="#1c95ff"/>
      <stop offset="0.72" stop-color="#8160ff"/>
      <stop offset="1" stop-color="#f4efff"/>
    </linearGradient>
    <radialGradient id="aura" cx="50%" cy="50%" r="58%">
      <stop stop-color="#53ecff" stop-opacity="0.24"/>
      <stop offset="0.56" stop-color="#7b61ff" stop-opacity="0.14"/>
      <stop offset="1" stop-color="#000000" stop-opacity="0"/>
    </radialGradient>
    <filter id="glow" x="-45%" y="-45%" width="190%" height="190%">
      <feGaussianBlur stdDeviation="7" result="blur"/>
      <feMerge>
        <feMergeNode in="blur"/>
        <feMergeNode in="SourceGraphic"/>
      </feMerge>
    </filter>
  </defs>
  <rect width="512" height="512" rx="104" fill="#02050d"/>
  <circle cx="256" cy="256" r="206" fill="url(#aura)"/>
  <g filter="url(#glow)">
    <rect x="105" y="105" width="302" height="302" rx="86" stroke="url(#markGrad)" stroke-width="18"/>
    <path d="M174 330V184C174 172 184 162 196 162H229C238 162 247 166 253 174L323 265V184C323 172 333 162 345 162H377C389 162 399 172 399 184V330C399 342 389 352 377 352H345C336 352 327 348 321 340L251 249V330C251 342 241 352 229 352H196C184 352 174 342 174 330Z" fill="url(#markGrad)"/>
    <path d="M139 219H80" stroke="#5af5ff" stroke-width="12" stroke-linecap="round"/>
    <path d="M139 268H70" stroke="#1c95ff" stroke-width="12" stroke-linecap="round"/>
    <path d="M139 317H85" stroke="#8160ff" stroke-width="12" stroke-linecap="round"/>
    <path d="M373 219H432" stroke="#5af5ff" stroke-width="12" stroke-linecap="round"/>
    <path d="M373 268H442" stroke="#1c95ff" stroke-width="12" stroke-linecap="round"/>
    <path d="M373 317H427" stroke="#8160ff" stroke-width="12" stroke-linecap="round"/>
  </g>
</svg>
